<?xml version="1.0" standalone="no"?>
<!DOCTYPE svg PUBLIC "-//W3C//DTD SVG 20010904//EN"
 "http://www.w3.org/TR/2001/REC-SVG-20010904/DTD/svg10.dtd">
<svg version="1.0" xmlns="http://www.w3.org/2000/svg"
 width="100.000000pt" height="100.000000pt" viewBox="0 0 100.000000 100.000000"
 preserveAspectRatio="xMidYMid meet">

<g transform="translate(0.000000,100.000000) scale(0.100000,-0.100000)"
fill="#000000" stroke="none">
<path d="M100 900 c-13 -13 -20 -33 -20 -60 l0 -40 420 0 420 0 0 40 c0 27 -7
47 -20 60 -19 19 -33 20 -400 20 -367 0 -381 -1 -400 -20z m76 -31 c10 -17
-13 -36 -27 -22 -12 12 -4 33 11 33 5 0 12 -5 16 -11z m60 0 c10 -17 -13 -36
-27 -22 -12 12 -4 33 11 33 5 0 12 -5 16 -11z m60 0 c10 -17 -13 -36 -27 -22
-12 12 -4 33 11 33 5 0 12 -5 16 -11z"/>
<path d="M80 440 c0 -307 1 -321 20 -340 19 -19 33 -20 400 -20 367 0 381 1
400 20 19 19 20 33 20 340 l0 320 -420 0 -420 0 0 -320z m584 232 c3 -5 -12
-26 -33 -46 -42 -41 -45 -71 -7 -86 17 -6 29 0 62 32 40 39 42 39 49 18 11
-36 -3 -85 -35 -115 -24 -23 -41 -30 -76 -31 -44 -2 -50 -6 -168 -123 -125
-123 -149 -137 -180 -105 -31 30 -18 55 79 153 l95 97 -48 47 c-26 26 -55 47
-64 47 -9 0 -26 16 -38 37 -18 31 -19 38 -7 50 12 12 19 11 50 -7 21 -12 37
-30 37 -39 0 -9 22 -38 48 -64 44 -44 50 -47 63 -31 7 9 12 29 11 45 -4 38 22
91 56 111 28 18 97 24 106 10z m8 -349 c38 -37 68 -75 68 -83 0 -20 -19 -40
-39 -40 -17 0 -151 128 -151 144 0 13 31 46 44 46 6 0 41 -30 78 -67z"/>
</g>
</svg>
